<svg width="24" height="24" viewBox="0 0 24 24" fill="none" xmlns="http://www.w3.org/2000/svg">
<path d="M7.3845 20.525C6.85517 20.5083 6.35167 20.3717 5.874 20.1152C5.3965 19.8589 4.94492 19.4827 4.51925 18.9865C3.88458 18.2442 3.38942 17.3461 3.03375 16.2922C2.67792 15.2384 2.5 14.1506 2.5 13.0287C2.5 11.7096 2.74808 10.4705 3.24425 9.3115C3.74042 8.1525 4.41767 7.14383 5.276 6.2855C6.13433 5.42717 7.14142 4.74833 8.29725 4.249C9.45292 3.74967 10.6872 3.5 12 3.5C13.3128 3.5 14.5471 3.75225 15.7028 4.25675C16.8586 4.76125 17.8641 5.44617 18.7193 6.3115C19.5744 7.177 20.2517 8.19275 20.751 9.35875C21.2503 10.5247 21.5 11.7744 21.5 13.1077C21.5 14.2884 21.3092 15.4067 20.9277 16.4625C20.5464 17.5182 20.0109 18.4166 19.3212 19.1577C18.8929 19.6116 18.4477 19.9529 17.9855 20.1817C17.5233 20.4106 17.0448 20.525 16.55 20.525C16.282 20.525 16.0173 20.4923 15.7557 20.427C15.4942 20.3615 15.2327 20.2634 14.9712 20.1327L13.5712 19.4327C13.3327 19.3134 13.0802 19.224 12.8135 19.1645C12.5468 19.1048 12.2725 19.075 11.9905 19.075C11.702 19.075 11.426 19.1048 11.1625 19.1645C10.899 19.224 10.6512 19.3134 10.4193 19.4327L9.02875 20.1327C8.75058 20.2801 8.47817 20.3865 8.2115 20.452C7.94483 20.5173 7.66917 20.5417 7.3845 20.525ZM7.425 19.025C7.575 19.025 7.72917 19.0083 7.8875 18.975C8.04583 18.9417 8.2 18.8833 8.35 18.8L9.75 18.1C10.1 17.9167 10.4625 17.7833 10.8375 17.7C11.2125 17.6167 11.5917 17.575 11.975 17.575C12.3583 17.575 12.7417 17.6167 13.125 17.7C13.5083 17.7833 13.875 17.9167 14.225 18.1L15.65 18.8C15.8 18.8833 15.95 18.9417 16.1 18.975C16.25 19.0083 16.4 19.025 16.55 19.025C16.8667 19.025 17.1683 18.9417 17.4548 18.775C17.7413 18.6083 18.0262 18.3583 18.3095 18.025C18.8428 17.3917 19.2579 16.6333 19.5548 15.75C19.8516 14.8667 20 13.9552 20 13.0155C20 10.7822 19.225 8.88792 17.675 7.33275C16.125 5.77758 14.2333 5 12 5C9.76667 5 7.875 5.78333 6.325 7.35C4.775 8.91667 4 10.8167 4 13.05C4 14 4.15575 14.925 4.46725 15.825C4.77875 16.725 5.20633 17.4833 5.75 18.1C6.03333 18.4333 6.30833 18.6708 6.575 18.8125C6.84167 18.9542 7.125 19.025 7.425 19.025ZM12 14.75C12.4858 14.75 12.899 14.5798 13.2395 14.2395C13.5798 13.899 13.75 13.4858 13.75 13C13.75 12.8603 13.7327 12.7222 13.698 12.5855C13.6635 12.449 13.6148 12.3173 13.552 12.1905L15.1 10.1595C15.3052 10.3827 15.4847 10.6279 15.6385 10.8952C15.7923 11.1626 15.9205 11.4507 16.023 11.7595H17.573C17.2845 10.4275 16.6214 9.34292 15.5837 8.50575C14.5459 7.66858 13.3513 7.25 12 7.25C10.6487 7.25 9.44992 7.67117 8.40375 8.5135C7.35775 9.35583 6.69558 10.4378 6.41725 11.7595H7.95775C8.23592 10.8532 8.74933 10.125 9.498 9.575C10.2468 9.025 11.0808 8.75 12 8.75C12.3538 8.75 12.6894 8.79258 13.0068 8.87775C13.3241 8.96308 13.6283 9.08458 13.9193 9.24225L12.3558 11.3037C12.3033 11.2911 12.244 11.2789 12.178 11.2672C12.1118 11.2557 12.0525 11.25 12 11.25C11.5142 11.25 11.101 11.4202 10.7605 11.7605C10.4202 12.101 10.25 12.5142 10.25 13C10.25 13.4858 10.4202 13.899 10.7605 14.2395C11.101 14.5798 11.5142 14.75 12 14.75Z" fill="#0B8475"/>
</svg>
